<svg width="24" height="22" viewBox="0 0 24 22" fill="none" xmlns="http://www.w3.org/2000/svg">
<path d="M10.3814 19.9084L11.5553 20.9542C12.0524 21.397 12.8561 21.397 13.3479 20.9542L23.6272 11.8014C24.1243 11.3586 24.1243 10.6425 23.6272 10.2045L13.3479 1.04694C12.8508 0.604143 12.0471 0.604143 11.5553 1.04694L10.3814 2.09271C9.87911 2.54022 9.88968 3.27037 10.4026 3.70846L16.7743 9.1163H1.57737C0.874098 9.1163 0.30831 9.62034 0.30831 10.2469V11.7543C0.30831 12.3808 0.874098 12.8848 1.57737 12.8848H16.7743L10.4026 18.2927C9.8844 18.7307 9.87382 19.4609 10.3814 19.9084Z" fill="#FFB533"/>
</svg>
